<svg width="894" height="513" viewBox="0 0 894 513" fill="none" xmlns="http://www.w3.org/2000/svg">
<g id="dreamstime_116504916 1" clip-path="url(#clip0)">
<rect width="894" height="513" fill="white"/>
<g id="surface1">
<g id="Group">
<path id="Vector" d="M523.334 41.3004C522.815 41.3004 522.212 41.4411 521.853 41.9965C521.538 42.479 521.054 43.9165 522.461 47.4349C523.319 47.2765 524.232 46.9523 525.247 46.4196C526.168 45.9345 527.236 45.1278 527.096 44.0321C526.956 42.9263 525.609 41.7427 524.095 41.3908C523.915 41.3506 523.641 41.3004 523.334 41.3004ZM552.447 68.7461C551.426 68.7461 550.179 69.9951 549.326 71.8799C548.915 72.7871 548.603 73.8024 548.413 74.8906C551.282 74.5991 553.424 74.0337 554.21 72.9153C554.587 72.3725 554.622 71.6789 554.315 70.7917C554.056 70.0479 553.477 68.7938 552.504 68.7486C552.484 68.7461 552.467 68.7461 552.447 68.7461ZM533.753 67.2281C533.556 67.8765 533.342 68.5224 533.1 69.1632C532.374 71.1084 531.334 73.2621 529.847 75.3882C532.721 75.25 535.664 75.2349 538.443 75.2173C538.642 75.2173 538.842 75.2148 539.042 75.2148C537.57 72.8575 535.821 70.2087 533.753 67.2281ZM509.138 82.0153C509.72 83.1789 510.114 84.453 510.301 85.79C511.566 85.4683 513.027 85.0612 514.716 84.546C520.346 82.8346 524.292 79.9797 527.056 76.8584C524.414 77.0795 521.912 77.4465 519.757 78.0622C515.512 79.2735 511.93 80.6808 509.138 82.0153ZM502.336 86.7199C502.354 86.7199 503.172 87.4713 509.054 86.0941C508.892 84.8476 508.532 83.6614 507.991 82.5833C504.322 84.4555 502.311 86.0991 502.336 86.7199ZM468.584 82.5054C472.88 82.5054 475.277 86.275 477.796 90.2382C477.841 90.3086 477.886 90.3815 477.933 90.4518C478.001 90.3111 478.071 90.1678 478.143 90.0246C480.864 84.4631 483.735 80.8718 486.923 79.0423C493.479 75.2802 501.106 74.7574 505.472 77.7707C506.694 78.6151 507.712 79.6781 508.502 80.8995C511.61 79.4117 515.424 77.9617 519.408 76.8232C521.992 76.0869 525.02 75.6948 528.188 75.4837C529.942 73.1892 531.117 70.8219 531.905 68.7109C532.257 67.7735 532.556 66.826 532.808 65.8761C531.476 63.9837 530.022 61.9657 528.435 59.8119C525.262 55.507 522.993 51.8202 521.653 48.8221C519.211 48.9603 517.116 47.9727 514.681 46.8267C509.954 44.6051 503.481 41.5592 489.475 44.1904C470.814 47.6962 460.442 52.8004 457.771 59.7969C456.082 64.2124 457.571 69.5503 462.196 75.6596C464.114 78.1979 465.678 80.5326 466.945 82.6763C467.522 82.5607 468.065 82.5054 468.584 82.5054ZM548.246 76.1949C547.932 80.0928 549.151 84.6867 552.826 88.5796C553.923 89.7431 555.497 90.9896 556.767 90.3186C559.306 88.9766 560.202 80.9045 558.643 73.3828C557.191 66.3787 554.19 62.0436 550.616 61.7847C548.221 61.6113 546.103 63.0111 544.287 65.9389C542.753 68.4118 541.628 71.7216 540.917 75.1997C543.115 75.1796 545.218 75.1344 547.089 75.0037C547.303 73.6491 547.68 72.4102 548.164 71.3446C549.281 68.8767 550.962 67.3764 552.564 67.4619C553.467 67.5046 554.712 68.0424 555.52 70.367C555.969 71.6562 555.879 72.762 555.253 73.6567C554.193 75.1696 551.646 75.8657 548.246 76.1949ZM540.496 77.5998C539.598 83.6815 539.935 89.821 541.534 92.6031C542.075 93.5404 542.693 93.9853 543.399 93.9551C544.679 93.9074 545.485 93.4952 545.864 92.696C546.682 90.9771 546.033 86.9083 540.496 77.5998ZM478.744 91.7159C482.603 97.6444 487.492 103.487 500.238 99.5593C504.92 98.1168 508.283 94.2491 509.009 89.4692C509.114 88.7706 509.161 88.0744 509.148 87.3934C504.893 88.371 502.311 88.4464 501.446 87.617C501.106 87.2928 500.984 86.853 501.101 86.373C501.421 85.0713 503.818 83.2719 507.343 81.47C506.657 80.4446 505.786 79.5474 504.748 78.8337C500.835 76.1296 493.603 76.69 487.557 80.1606C484.598 81.8595 481.894 85.2723 479.288 90.5951C479.101 90.972 478.921 91.3465 478.744 91.7159ZM466.309 84.154C463.401 84.9406 461.869 85.9031 461.079 87.4235C459.866 89.7507 460.385 93.7314 462.71 99.9489C463.526 102.133 464.992 103.502 466.631 103.613C467.926 103.703 469.121 102.947 469.869 101.542C471.475 98.5265 471.096 92.6081 466.309 84.154ZM611.395 88.6952C602.849 90.7383 592.278 98.622 587.146 105.038C584.714 108.081 583.677 110.635 584.373 111.874C584.944 112.891 586.847 113.233 589.738 112.834C603.597 110.914 612.2 107.214 615.308 101.834C616.86 99.1447 616.967 96.0686 615.628 92.6935C614.969 91.0399 613.503 89.6677 611.395 88.6952ZM488.647 110.725C488.365 110.725 488.078 110.735 487.791 110.758C485.758 110.924 482.353 111.818 482.069 115.947C485.746 115.51 489.794 114.191 492.566 113.288C493.656 112.932 493.957 112.56 493.933 112.434C493.803 111.781 491.426 110.725 488.647 110.725ZM559.321 119.39C559.289 120.845 559.583 122.072 560.109 123.037C561.334 125.279 563.841 126.141 566.655 125.291C570.247 124.205 573.203 121.446 573.607 119.647C573.771 118.92 573.49 118.561 573.265 118.355C572.654 117.794 569.942 116.42 559.321 119.39ZM484 125.731C484.287 126.09 484.606 126.399 484.958 126.661C488.335 129.171 495.005 127.337 501.708 124.982C503.364 124.399 503.955 123.997 504.162 123.811C502.803 122.984 494.112 122.775 487.377 124.389C485.96 124.728 484.84 125.173 484 125.731ZM496.128 131.016C493.563 131.016 491.438 132.089 490.49 133.622C489.335 135.497 490.036 137.661 492.416 139.561C494.179 140.965 496.549 141.835 498.981 142.493C501.106 139.48 502.685 136.402 502.346 134.278C502.189 133.28 501.61 132.559 500.578 132.066C499.044 131.333 497.519 131.016 496.128 131.016ZM569.733 139.651C571.477 139.651 573.22 139.716 574.974 139.85C581.494 140.35 587.306 141.063 592.432 141.692C605.832 143.338 614.682 144.423 619.606 139.671C620.005 139.287 620.38 138.862 620.734 138.394C620.474 138.279 620.215 138.163 619.956 138.05C602.769 130.523 585.697 128.342 576.463 132.501C572.377 134.341 568.835 136.864 565.515 139.774C566.914 139.694 568.321 139.651 569.733 139.651ZM549.882 122.502C527.921 130.838 515.424 143.695 514.861 147.728C514.773 148.377 515.018 148.545 515.11 148.608C515.447 148.839 517.592 149.739 526.507 144.652C535.934 139.272 543.704 131.926 549.882 122.502ZM493.86 150.593C495.983 151.958 498.263 152.89 500.455 153.194C502.678 153.503 505.791 153.265 508.011 150.39C509.004 149.103 509.383 148.098 509.136 147.409C508.645 146.029 505.596 145.348 502.371 144.627C501.441 144.418 500.478 144.205 499.515 143.961C497.542 146.65 495.304 149.095 493.86 150.593ZM466.589 146.459C465.808 146.459 465.187 146.625 464.743 146.884C464.032 147.296 463.683 147.977 463.7 148.907C463.75 151.38 466.531 155.627 473.78 160.502C476.095 154.664 476.27 150.897 471.999 148.301C469.779 146.954 467.946 146.459 466.589 146.459ZM561.923 141.352C539.077 143.775 519.064 156.205 514.432 164.038C513.788 165.124 513.162 166.639 513.831 167.685C514.322 168.454 515.986 169.65 521.641 169.017C537.253 167.27 546.388 157.59 555.22 148.228C557.401 145.916 559.608 143.577 561.923 141.352ZM609.916 186.784C609.442 187.641 605.101 195.784 604.096 209.031C606.349 206.985 609.025 202.71 611.315 197.262C614.228 190.328 614.899 185.244 613.847 184.51C613.7 184.407 612.812 184.03 609.916 186.784ZM658.257 199.368C657.966 199.368 657.838 199.503 657.793 199.561C657.155 200.275 656.95 203.394 660.225 210.564C664.773 220.515 666.407 219.993 666.472 219.965C667.474 219.56 667.766 215.761 667.217 209.802C663.685 203.346 660.525 200.064 658.756 199.461C658.552 199.393 658.392 199.368 658.257 199.368ZM474.359 162.417C473.433 164.609 472.286 167.001 471.036 169.602C467.761 176.43 463.685 184.927 460.595 195.57C452.732 222.659 462.228 234.72 468.43 241.94C468.395 241.824 468.36 241.706 468.327 241.588C466.898 236.68 463.55 225.185 465.107 209.284C466.544 194.613 471.757 180.115 480.642 166.009C480.325 165.843 480.009 165.674 479.694 165.508C477.774 164.491 475.993 163.455 474.359 162.417ZM503.661 250.904C505.474 252.1 507.088 253.47 508.49 254.953C512.733 253.498 514.177 252.44 514.245 251.955C514.25 251.914 514.09 251.64 513.202 251.329C510.817 250.494 507.497 250.411 503.661 250.904ZM466.958 252.208C468.395 255.387 469.774 258.554 471.084 261.678C475.284 259.145 479.884 256.903 484.085 255.169C488.941 253.163 494.576 251.301 499.862 250.238C491.954 246.433 480.884 245.843 466.958 252.208ZM501.683 251.201C492.72 252.734 481.503 257.026 472.707 262.168C480.288 261.354 489.176 259.866 497.195 258.036C501.413 257.074 504.661 256.187 507.135 255.4C505.571 253.827 503.751 252.399 501.683 251.201ZM465.838 252.734C465.578 252.857 465.319 252.982 465.057 253.113C454.171 258.486 453.782 260.647 453.922 261.183C454.019 261.557 455.097 263.394 466.659 262.688C467.674 262.625 468.734 262.545 469.831 262.449C469.899 262.407 469.966 262.364 470.033 262.321C468.704 259.165 467.3 255.955 465.838 252.734ZM529.014 259.134C530.673 259.134 532.309 259.295 533.918 259.637C538.438 260.6 542.511 263.002 546.098 266.815C548.777 264.068 549.785 261.271 548.924 258.657C547.53 254.412 541.314 251.545 535.886 252.638C530.483 253.726 526.158 256.27 523.856 259.62C525.594 259.303 527.315 259.134 529.014 259.134ZM522.995 261.102C522.915 261.268 522.84 261.434 522.771 261.602C521.266 265.236 522.002 269.501 524.903 273.939C525.265 274.495 526.018 275.621 527.153 277.191C530.356 275.985 533.442 274.683 536.338 273.301C540.072 271.517 543.048 269.617 545.193 267.682C541.803 264.058 537.981 261.816 533.654 260.896C530.234 260.17 526.659 260.308 522.995 261.102ZM514.185 264.093C516.584 270.524 516.155 277.081 513.097 281.662C517.465 280.506 521.78 279.159 525.908 277.651C524.873 276.211 524.18 275.176 523.836 274.648C520.787 269.981 519.964 265.435 521.448 261.474C519.059 262.102 516.632 262.995 514.185 264.093ZM316.766 269.614C318.53 271.725 320.782 273.758 323.708 275.671C328.393 278.737 334.522 281.273 342.16 283.291C338.483 278.895 334.414 275.53 329.894 273.618C323.848 271.062 319.66 269.961 316.766 269.614ZM471.857 263.54C475.142 271.522 477.908 279.149 479.789 285.768C480.74 285.035 481.702 284.291 482.675 283.537C492.211 276.148 502.488 268.189 512.546 263.437C512.117 262.434 511.615 261.439 511.037 260.456C510.226 259.072 509.256 257.73 508.131 256.463C498.969 259.522 483.177 262.371 471.857 263.54ZM470.193 263.703C465.346 266.802 461.488 270.127 459.554 273.293C457.783 276.196 457.896 278.551 459.896 280.496C463.573 284.075 470.345 285.836 478.679 286.158C476.788 279.506 473.962 271.778 470.595 263.666C470.46 263.678 470.325 263.691 470.193 263.703ZM481.316 286.211C490.323 286.228 500.79 284.753 511.099 282.177C514.753 277.97 515.469 271.255 513.022 264.631C503.114 269.325 492.917 277.224 483.453 284.557C482.735 285.113 482.022 285.665 481.316 286.211ZM480.261 287.475C480.645 288.917 480.986 290.31 481.278 291.637C495.494 291.292 501.583 289.33 508.999 284.077C509.079 284.022 509.158 283.964 509.236 283.906C503.948 285.143 498.607 286.098 493.439 286.713C488.664 287.281 484.252 287.535 480.261 287.475ZM344.212 283.811C356.495 286.806 372.442 288.556 392.312 289.108C411.639 289.646 427.454 290.227 440.163 290.694C453.887 291.199 464.391 291.584 472.68 291.674C474.481 290.078 476.165 288.641 477.714 287.394C469.061 286.957 462.62 284.934 459.008 281.423C456.581 279.061 456.394 276.015 458.467 272.62C460.293 269.627 463.62 266.651 467.601 263.914C467.307 263.935 467.018 263.955 466.736 263.972C453.538 264.779 452.899 262.319 452.687 261.512C452.316 260.094 453.136 257.564 464.493 251.957C464.765 251.824 465.037 251.691 465.304 251.562C459.377 238.605 452.6 225.544 446.449 215.019C441.832 207.118 438.242 199.508 435.074 192.798C424.498 170.391 417.513 155.592 387.234 157.861C375.847 158.716 360.506 157.685 344.262 156.594C313.234 154.511 281.149 152.357 274.261 163.204C272.089 166.629 272.585 171.163 275.783 177.071C291.73 206.522 297.085 219.083 302.266 231.231C303.708 234.609 305.197 238.102 306.883 241.879C308.263 244.968 308.941 248.331 309.657 251.892C310.762 257.385 311.895 263.007 315.671 268.209C319.308 268.428 324.267 269.843 330.388 272.431C335.554 274.618 340.129 278.604 344.212 283.811ZM474.603 291.689C476.554 291.699 478.377 291.692 480.083 291.662C479.817 290.453 479.507 289.194 479.156 287.885C477.754 288.99 476.232 290.267 474.603 291.689ZM628.17 281.054C640.016 284.148 652.53 288.013 665.391 292.576C665.845 292.737 666.292 292.903 666.733 293.074C666.898 290.847 667.417 288.669 668.367 286.683C670.348 282.519 674.651 277.993 683.898 276.447C681.106 245.154 674.581 224.592 668.687 212.637C668.904 217.369 668.4 220.573 666.943 221.159C665.653 221.679 663.59 221.008 659.063 211.101C656.202 204.841 655.391 200.32 656.841 198.699C657.16 198.342 657.888 197.81 659.165 198.242C661.176 198.925 663.91 201.727 666.873 206.653C665.801 198.056 663.279 186.189 659.038 173.726C654.548 160.53 640.749 147.63 621.929 138.94C621.485 139.551 621.006 140.103 620.489 140.601C615.129 145.776 606.039 144.66 592.28 142.971C587.164 142.343 581.369 141.631 574.876 141.134C571.217 140.852 567.565 140.88 563.978 141.164C561.309 143.639 558.757 146.346 556.146 149.113C547.156 158.643 537.857 168.497 521.783 170.296C516.951 170.836 513.913 170.193 512.755 168.383C512.192 167.499 511.835 165.916 513.334 163.38C518.201 155.152 539.498 141.976 563.447 139.922C567.191 136.495 571.247 133.439 575.942 131.325C585.49 127.028 602.964 129.204 620.464 136.869C620.799 137.017 621.13 137.163 621.462 137.314C625.049 131.35 625.775 119.709 624.099 98.0791C623.695 92.8745 621.742 89.6904 618.297 88.6173C616.84 88.1624 615.176 88.0895 613.395 88.3207C615.032 89.3561 616.204 90.678 616.813 92.216C618.307 95.9782 618.172 99.4312 616.411 102.48C613.096 108.222 604.181 112.132 589.913 114.108C586.371 114.598 584.131 114.06 583.26 112.507C581.991 110.245 584.133 106.757 586.151 104.231C591.172 97.956 600.828 90.5951 609.332 87.9337C609.087 87.8633 608.838 87.7955 608.581 87.7326C599.818 85.5915 585.024 88.6248 571.726 100.233C563.512 107.405 560.092 113.572 559.438 118.021C567.199 115.895 572.232 115.671 574.123 117.402C574.817 118.038 575.076 118.935 574.854 119.931C574.29 122.431 570.776 125.389 567.019 126.525C563.649 127.543 560.499 126.417 558.992 123.655C558.418 122.607 558.079 121.293 558.069 119.75C556.894 120.097 555.627 120.491 554.265 120.943C553.459 121.212 552.664 121.486 551.88 121.765C545.45 132.054 537.226 140.013 527.136 145.77C522.546 148.392 516.609 151.194 514.392 149.671C514.02 149.417 513.424 148.804 513.596 147.55C514.287 142.604 528.041 129.033 551.025 120.707C558.595 108.448 563.614 92.8544 566.206 73.712C567.877 61.36 565.737 30.3407 548.451 13.2867C538.179 3.15381 524.197 -0.590729 506.911 2.16113C471.336 7.82066 458.257 27.4707 456.135 38.1916C455.421 41.7929 455.928 44.7132 457.419 45.6355C458.539 46.3291 460.218 45.8692 462.141 44.3412C472.411 36.1912 500.775 31.0343 518.345 34.1204C524.736 35.2438 528.917 37.3271 530.768 40.3152C534.277 45.9773 536.572 55.9116 534.192 65.6172C536.338 68.6832 538.223 71.5029 539.842 74.0789C540.586 70.7867 541.703 67.678 543.205 65.2579C545.263 61.9406 547.864 60.2995 550.706 60.5031C554.944 60.8071 558.294 65.4061 559.892 73.1189C561.419 80.4873 560.885 89.5949 557.361 91.4571C556.271 92.0326 554.44 92.1557 551.9 89.4667C547.827 85.1517 546.642 80.329 546.939 76.3005C545.22 76.4161 543.325 76.4613 541.319 76.4839C546.435 85.0084 548.306 90.5423 547.016 93.2514C546.42 94.503 545.22 95.174 543.447 95.2418C542.624 95.2695 541.411 94.9553 540.431 93.2489C538.623 90.105 538.251 83.1839 539.368 76.499C539.064 76.5015 538.757 76.5015 538.45 76.504C535.34 76.5216 532.025 76.5417 528.842 76.7327C525.923 80.3818 521.571 83.8072 515.085 85.7774C513.374 86.3002 511.818 86.7349 510.418 87.0868C510.451 87.9312 510.403 88.7932 510.271 89.6652C509.468 94.9377 505.769 99.2 500.613 100.788C487.487 104.834 482.024 98.9436 478.105 93.073C473.017 104.05 471.77 111.16 474.399 114.228C475.743 115.792 478.1 116.219 480.782 116.063C480.964 112.215 483.476 109.815 487.689 109.476C490.859 109.222 494.823 110.348 495.185 112.183C495.322 112.871 495.045 113.831 492.96 114.51C489.293 115.706 485.439 116.857 482.032 117.249C482.002 120.484 482.423 122.936 483.306 124.65C484.277 124.012 485.529 123.509 487.08 123.137C492.862 121.75 504.778 121.051 505.487 123.489C505.841 124.711 503.988 125.542 502.127 126.196C493.997 129.053 487.839 130.403 484.199 127.696C483.763 127.372 483.371 126.998 483.019 126.568C482.797 126.817 482.615 127.085 482.471 127.369C481.144 129.983 482.897 134.27 485.117 139.696L485.691 141.106C487.053 144.459 489.697 147.605 492.79 149.862C494.357 148.248 496.385 145.989 498.173 143.604C495.773 142.926 493.441 142.018 491.623 140.568C488.203 137.842 488.235 134.841 489.405 132.944C491.194 130.046 496.065 128.488 501.124 130.903C502.546 131.581 503.381 132.647 503.608 134.074C503.997 136.527 502.411 139.774 500.313 142.835C501.101 143.026 501.885 143.202 502.648 143.37C506.534 144.24 509.607 144.929 510.338 146.972C510.747 148.12 510.316 149.497 509.019 151.179C506.966 153.838 503.948 154.976 500.281 154.468C497.841 154.132 495.299 153.066 492.955 151.518C492.663 151.809 492.461 152.003 492.378 152.083C488.682 156.532 485.377 161.005 482.456 165.506C509.765 179.627 540.326 188.292 578.391 161.41C596.037 148.947 600.751 145.946 602.961 147.447C604.69 148.62 603.899 152.063 602.328 158.924C600.424 167.227 597.551 179.775 597.7 195.814C597.815 207.844 599.968 210.066 601.24 210.32C601.689 210.41 602.198 210.3 602.747 210.011C602.767 209.691 602.789 209.377 602.811 209.068C603.874 194.716 608.656 186.405 608.858 186.058C608.888 186.005 608.925 185.96 608.968 185.917C611.559 183.434 613.39 182.628 614.575 183.452C617.529 185.513 613.016 196.515 612.49 197.764C610.322 202.926 607.102 208.583 603.986 210.737C603.313 223.795 605.887 243.822 621.013 267.528C623.577 271.547 625.975 276.093 628.17 281.054ZM314.736 269.483C312.521 269.483 311.423 270.034 310.907 270.456C310.111 271.109 309.837 272.107 310.091 273.422C311.169 278.968 321.76 289.453 338.842 294.713C342.297 295.776 346.547 296.791 351.396 297.751C348.982 293.001 346.36 288.666 343.494 284.952C334.936 282.833 328.138 280.106 323.012 276.751C319.553 274.487 316.988 272.034 315.05 269.486C314.943 269.483 314.838 269.483 314.736 269.483ZM667.966 293.572C674.658 296.376 679.759 300.322 683.067 305.142C684.409 300.553 685.225 292.659 684.12 279.079C684.09 278.631 684.05 278.179 684.012 277.732C675.359 279.207 671.356 283.386 669.517 287.239C668.584 289.204 668.093 291.365 667.966 293.572ZM352.97 298.055C381.095 303.418 427.586 307.012 455.661 307.731C461.42 302.119 466.691 297.062 471.261 292.943C463.166 292.828 453.064 292.456 440.115 291.981C427.409 291.513 411.599 290.933 392.277 290.395C373.14 289.862 357.6 288.216 345.425 285.414C348.156 289.146 350.658 293.418 352.97 298.055ZM457.454 307.773C467.756 307.994 475.314 307.806 478.143 307.14C479.228 306.884 480.004 306.177 480.513 304.979C481.58 302.468 481.425 298.274 480.353 292.946C478.15 292.986 475.761 292.991 473.156 292.966C468.604 297.02 463.296 302.091 457.454 307.773ZM667.938 294.946C667.996 300.47 670.218 306.054 673.349 309.269C674.516 310.462 676.808 312.309 679.121 311.246C680.041 310.824 681.426 309.678 682.583 306.602C679.882 302.282 675.347 298.113 667.938 294.946ZM527.934 278.259C533.357 285.59 545.397 300.199 563.337 312.737C562.761 301.038 557.984 288.895 550.952 275.904C549.433 273.1 547.809 270.687 546.068 268.659C544.003 270.516 541.05 272.474 536.884 274.462C534.08 275.801 531.074 277.073 527.934 278.259ZM580.007 322.689C585.395 325.38 591.145 327.768 597.254 329.698C606.339 332.57 614.024 335.101 620.806 337.335C628.965 340.022 635.608 342.208 641.305 343.872C641.265 343.294 641.221 342.713 641.183 342.133C639.562 320.133 634.533 298.796 627.252 282.137C602.699 275.779 585.862 274.055 576.603 273.665C572.709 273.497 570.092 274.603 568.59 277.028C564.674 283.353 568.513 298.681 580.007 322.689ZM642.607 344.246C652.837 347.159 659.996 348.28 667.664 347.443C675.915 346.543 684.676 334.932 686.035 323.083C686.497 319.117 686.33 313.513 683.394 308.004C682.416 310.229 681.171 311.716 679.65 312.418C677.415 313.448 674.855 312.649 672.441 310.168C669.013 306.652 666.611 300.473 666.676 294.431C666.12 294.21 665.551 293.996 664.962 293.788C651.503 289.01 639.452 285.349 628.821 282.547C635.942 299.204 640.851 320.309 642.453 342.037C642.513 342.776 642.563 343.515 642.607 344.246ZM360.069 314.767C370.504 321.854 377.772 329.097 380.973 337.559C385.306 349.018 389.252 360.488 389.349 369.04C410.192 352.278 430.943 331.939 447.833 315.388C450.051 313.212 452.221 311.086 454.326 309.032C443.326 308.728 429.656 307.989 415.129 306.851C390.516 304.928 368.91 302.307 353.664 299.47C355.986 304.283 358.111 309.447 360.069 314.767ZM548.381 341.735C547.143 341.735 545.714 342.18 544.165 343.065C533.629 349.091 519.917 365.303 520.049 369.056C520.057 369.322 520.141 369.362 520.186 369.385C520.715 369.639 523.437 369.711 536.228 360.006C542.958 354.899 548.273 349.815 552.344 344.724C552.035 343.834 551.559 343.105 550.928 342.59C550.229 342.019 549.366 341.735 548.381 341.735ZM360.865 316.961C365.016 328.582 368.413 340.798 371.409 351.564C374.363 362.187 377.024 371.76 379.446 376.716C382.295 374.597 385.151 372.393 388.009 370.114C388.274 361.579 384.103 349.456 379.778 338.019C376.882 330.361 370.227 323.561 360.865 316.961ZM380.05 377.864C380.751 379.088 381.429 379.887 382.09 380.169C382.424 380.312 382.721 380.294 383.051 380.113C385.996 378.505 387.463 375.605 387.887 371.848C385.273 373.918 382.656 375.929 380.05 377.864ZM468.36 377.776C467.459 377.776 466.659 378.11 465.958 378.771C464.202 380.44 463.186 383.88 462.974 388.447C466.798 386.625 470.857 384.908 475.147 383.365C473.835 381.073 472.485 379.435 471.156 378.661C470.143 378.073 469.208 377.776 468.36 377.776ZM599.614 365.429C602.794 375.718 604.298 384.898 604.989 391.927C605.024 392.284 605.056 392.639 605.089 392.99C608.032 381.702 608.339 372.504 605.775 368.141C604.488 365.952 602.375 364.934 599.968 365.359C599.851 365.379 599.733 365.401 599.614 365.429ZM598.396 365.841C596.002 366.894 593.57 369.407 592.824 373.3C592.165 376.736 592.31 384.85 603.936 394.853C603.293 386.243 601.627 376.316 598.396 365.841ZM605.485 396.142C607.72 397.941 610.325 399.791 613.363 401.686C620.367 406.046 626.304 405.81 631.006 400.987C639.018 392.774 642.927 371.574 641.388 345.234C635.571 343.55 628.783 341.316 620.41 338.556C613.632 336.325 605.949 333.794 596.872 330.924C591.25 329.147 585.929 326.991 580.913 324.563C583.442 329.766 586.316 335.357 589.536 341.341C593.787 349.242 596.922 356.98 599.227 364.2C599.402 364.157 599.576 364.12 599.748 364.09C602.704 363.572 605.301 364.808 606.872 367.485C610.02 372.838 609.028 383.968 605.485 396.142ZM302.097 287.525C299.69 287.525 297.677 288.226 296.073 289.631C285.584 298.804 292.832 336.219 302.226 365.469C304.209 371.647 311.014 390.12 327.403 412.794C331.907 406.134 339.992 399.929 351.573 394.255C360.194 390.03 369.254 384.227 378.418 377.474C375.907 372.506 373.352 363.326 370.179 351.911C367.046 340.65 363.467 327.785 359.059 315.712C347.014 307.545 330.892 299.623 312.715 290.692L311.982 290.33C308.178 288.46 304.875 287.525 302.097 287.525ZM465.399 407.227C474.107 407.873 479.886 411.464 484.578 416.295C482.915 404.073 479.53 391.719 475.773 384.511C471.231 386.137 466.95 387.959 462.932 389.897C462.884 394.797 463.685 400.809 465.399 407.227ZM465.776 408.597C467.182 413.528 469.121 418.669 471.622 423.711C474.596 429.702 479.178 435.176 485.08 439.895C485.302 438.43 485.459 436.827 485.556 435.088C485.833 430.049 485.551 424.329 484.858 418.506C480.218 413.362 474.558 409.406 465.776 408.597ZM324.457 426.661C332.095 431.413 338.079 437.706 342.202 443.529C343.684 442.803 345.223 442.134 346.814 441.541C347.75 441.192 348.737 440.858 349.77 440.546C347.59 438.719 345.432 436.636 343.295 434.301C337.258 427.707 332.017 421.243 327.477 415.068C326.006 417.594 325.07 420.175 324.669 422.811C324.472 424.103 324.407 425.387 324.457 426.661ZM362.681 438.621C370.035 438.621 378.451 440.493 387.373 445.949C398.401 441.019 407.478 431.293 413.597 424.736C416.094 422.06 418.065 419.949 419.576 418.772C420.751 417.858 422.228 416.573 424.099 414.95C431.205 408.77 443.82 397.811 461.69 389.067C461.864 383.795 463.029 379.787 465.082 377.836C466.332 376.65 468.512 375.64 471.795 377.547C473.374 378.465 474.918 380.344 476.384 382.928C486.187 379.513 497.178 377.007 509.326 376.178C535.821 374.368 548.902 362.006 552.052 351.971C552.701 349.908 552.911 347.948 552.706 346.307C548.57 351.323 543.344 356.219 536.996 361.034C522.591 371.966 520.366 370.9 519.638 370.546C519.328 370.398 518.804 370.013 518.772 369.101C518.61 364.489 532.898 348.028 543.537 341.947C546.807 340.074 549.72 339.949 551.731 341.587C552.367 342.107 552.876 342.773 553.255 343.56C560.578 333.957 563.552 324.297 563.39 314.33C544.627 301.398 532.127 286.123 526.687 278.722C521.955 280.453 516.936 281.991 511.835 283.275C511.209 283.962 510.508 284.582 509.732 285.13C502.102 290.533 495.906 292.556 481.545 292.918C482.653 298.467 482.807 302.848 481.687 305.486C481.016 307.065 479.921 308.042 478.435 308.392C475.309 309.128 467.2 309.339 456.115 309.075C453.73 311.402 451.26 313.822 448.721 316.308C431.589 333.103 410.492 353.778 389.317 370.712C389.065 375.489 387.411 379.196 383.659 381.244C382.993 381.609 382.277 381.646 381.591 381.355C380.726 380.985 379.88 380.045 379.037 378.613C369.858 385.366 360.783 391.173 352.132 395.411C340.521 401.1 332.514 407.29 328.203 413.895C332.786 420.155 338.096 426.721 344.232 433.426C346.557 435.967 348.904 438.199 351.272 440.124C354.662 439.227 358.5 438.621 362.681 438.621ZM324.594 428.39C325.437 435.374 329.618 442.044 334.691 447.987C336.649 446.61 338.767 445.301 341.032 444.122C337.098 438.691 331.508 432.896 324.594 428.39ZM352.549 441.127C359.408 446.366 366.438 449.028 373.534 449.063C377.852 449.091 382.003 448.141 385.912 446.573C373.075 439.006 361.359 439.001 352.549 441.127ZM486.048 417.888C488.457 420.62 490.61 423.658 492.79 426.734C497.993 434.082 503.376 441.679 513 445.379C523.496 449.415 536.909 450.975 549.8 449.659C563.821 448.226 575.458 443.519 582.564 436.407C590.372 428.591 598 415.028 602.964 400.125C603.353 398.957 603.717 397.803 604.056 396.67C604.056 396.655 604.056 396.639 604.054 396.624C590.985 385.81 590.848 376.814 591.569 373.056C592.425 368.596 595.191 365.771 598.007 364.602C595.652 357.219 592.517 349.581 588.414 341.954C584.867 335.365 581.744 329.263 579.037 323.636C573.906 321.048 569.107 318.188 564.649 315.187C564.654 317.067 564.547 318.906 564.333 320.708C563.32 329.198 559.833 337.24 553.766 344.987C554.285 347.033 554.135 349.602 553.27 352.358C549.997 362.78 536.547 375.607 509.41 377.462C497.475 378.276 486.664 380.726 477.005 384.076C481.116 392 484.511 405.322 486.048 417.888ZM462.351 408.441C457.479 408.441 451.732 409.316 444.832 411.321C435.286 414.093 429.991 417.762 429.098 422.223C428.11 427.161 432.779 432.16 436.87 435.482C449.235 445.53 472.473 453.632 479.734 450.428C482.151 449.365 483.873 446.289 484.818 441.418C478.756 436.678 473.795 430.966 470.48 424.284C467.848 418.986 465.838 413.621 464.404 408.496C463.738 408.461 463.054 408.441 462.351 408.441ZM486.222 440.787C491.767 445.012 498.395 448.593 505.891 451.357C521.012 456.932 538.69 458.764 554.397 456.386C588.947 451.156 596.72 433.497 600.896 424.01C601.135 423.462 601.365 422.939 601.589 422.444C603.223 418.828 604.513 410.829 604.213 400.231C599.579 414.226 591.891 428.885 583.465 437.319C567.693 453.107 534.063 454.853 512.546 446.583C502.561 442.743 497.066 434.985 491.75 427.48C489.971 424.972 488.213 422.489 486.31 420.187C486.871 425.553 487.075 430.707 486.831 435.16C486.716 437.211 486.514 439.088 486.222 440.787ZM335.534 448.96C337.917 451.664 340.458 454.21 342.925 456.557C346.136 459.611 347.123 459.211 347.223 459.158C347.48 459.017 347.687 458.354 347.435 456.937C346.921 454.054 344.966 449.789 341.78 445.18C339.55 446.331 337.463 447.61 335.534 448.96ZM263.141 429.953C254.154 435.007 246.815 441.232 242.223 446.588C238.197 451.285 237.157 454.3 237.524 455.557C241.128 467.896 269.43 480.216 287.983 477.516C295.661 476.403 304.811 472.314 304.811 459.168C304.813 447.686 302.306 439.82 297.155 435.115C289.677 428.295 277.477 428.624 263.141 429.953ZM334.487 449.709C329.268 453.541 325.315 457.826 323.007 461.247C318.228 468.324 319.715 475.818 322.267 481.409C354.267 474.91 391.172 465.738 393.145 455.464C393.637 452.918 391.803 450.294 387.695 447.668C387.555 447.578 387.413 447.49 387.274 447.399C383.016 449.224 378.468 450.35 373.679 450.35C373.627 450.35 373.579 450.35 373.527 450.35C365.869 450.312 358.316 447.354 350.982 441.534C349.665 441.903 348.421 442.315 347.258 442.748C345.771 443.303 344.33 443.924 342.943 444.597C346.235 449.463 348.191 453.903 348.692 456.71C349.027 458.59 348.737 459.797 347.832 460.289C346.617 460.953 344.724 460.038 342.047 457.492C339.525 455.092 336.924 452.483 334.487 449.709ZM260.118 430.242C259.193 430.333 258.26 430.426 257.317 430.521C251.515 431.099 245.516 431.7 239.489 431.934L237.855 431.996C217.256 432.788 199.464 433.472 194.116 443.001C190.786 448.93 192.574 458.047 199.581 470.869C217.336 503.359 239.347 498.488 269.811 491.748C274.656 490.675 279.667 489.567 284.895 488.562C288.158 487.933 291.847 487.245 295.843 486.498C303.149 485.136 311.84 483.515 320.979 481.671C317.505 473.903 317.826 466.632 321.95 460.523C324.309 457.03 328.338 452.657 333.649 448.739C328.228 442.368 323.803 435.15 323.227 427.526C317.834 424.228 311.688 421.735 304.933 420.773C291.009 418.793 277.372 422.57 266.012 428.408C279.358 427.304 290.687 427.478 298.011 434.163C303.446 439.124 306.09 447.304 306.088 459.168C306.088 470.146 299.722 477.112 288.168 478.791C286.302 479.06 284.351 479.19 282.348 479.19C263.461 479.19 239.754 467.748 236.296 455.919C235.466 453.074 239.048 448.324 241.258 445.748C245.508 440.79 252.076 435.1 260.118 430.242ZM429.968 448.646C425.022 448.646 419.472 450.513 413.981 454.954C396.588 469.015 390.003 483.729 385.196 494.472C384.462 496.111 383.761 497.679 383.061 499.159C404.857 496.528 426.309 491.751 436.586 483.123C448.858 472.819 448.913 461.505 443.523 454.866C440.44 451.063 435.593 448.646 429.968 448.646ZM342.741 503.399C350.668 508.561 359.326 511.843 366.313 511.707C373.836 511.554 377.441 507.45 380.826 500.816C367.233 502.364 353.681 503.08 342.741 503.399ZM365.879 512.999C358.311 512.999 348.952 509.212 340.578 503.457C328.582 503.761 320.164 503.585 319.059 503.56H0V502.273H319.074C319.343 502.281 327.166 502.442 338.75 502.16C331.8 497.053 325.701 490.635 322.129 484.005C321.927 483.628 321.733 483.251 321.548 482.877C312.429 484.712 303.648 486.35 296.075 487.762C292.082 488.509 288.395 489.197 285.135 489.823C279.924 490.826 274.922 491.934 270.083 493.005C240.245 499.607 216.678 504.821 198.461 471.488C191.225 458.243 189.439 448.719 193.003 442.368C198.703 432.213 216.825 431.516 237.808 430.71L239.439 430.647C245.428 430.416 251.408 429.818 257.192 429.24C259.085 429.051 260.954 428.865 262.785 428.694C274.855 421.962 289.807 417.322 305.112 419.501C311.837 420.456 317.874 422.791 323.162 425.882C323.16 424.799 323.239 423.713 323.404 422.618C323.855 419.652 324.943 416.762 326.659 413.95C309.952 390.935 303.022 372.127 301.012 365.866C298.899 359.292 280.804 301.282 295.235 288.659C299.116 285.266 304.938 285.437 312.541 289.174L313.274 289.533C331.172 298.329 346.55 305.886 358.261 313.561C356.37 308.545 354.33 303.689 352.11 299.176C346.612 298.118 342.01 297.032 338.468 295.942C322.371 290.988 310.151 280.426 308.839 273.67C308.49 271.878 308.926 270.421 310.099 269.458C311.039 268.689 312.386 268.267 314.122 268.192C310.575 262.924 309.445 257.315 308.405 252.148C307.704 248.66 307.041 245.365 305.719 242.407C304.027 238.62 302.536 235.124 301.094 231.739C295.925 219.618 290.58 207.085 274.663 177.687C271.271 171.419 270.772 166.313 273.186 162.513C280.478 151.023 312.947 153.202 344.347 155.31C360.543 156.398 375.842 157.424 387.139 156.579C401.537 155.499 411.784 158.205 419.384 165.099C426.429 171.49 430.971 181.107 436.227 192.245C439.385 198.933 442.962 206.512 447.551 214.366C453.715 224.916 460.495 238.009 466.429 251.037C481.68 244.063 493.656 245.214 501.942 249.859C506.467 249.122 510.61 249.062 513.621 250.115C514.99 250.592 515.626 251.271 515.509 252.13C515.34 253.372 513.032 254.704 509.438 256.008C510.471 257.219 511.371 258.494 512.137 259.8C512.735 260.823 513.259 261.859 513.708 262.904C516.542 261.633 519.358 260.63 522.132 259.979C524.409 255.815 529.351 252.643 535.634 251.377C541.756 250.143 548.528 253.357 550.137 258.252C550.825 260.343 550.92 263.789 546.979 267.79C548.815 269.906 550.513 272.409 552.075 275.289C560.169 290.242 564.248 302.631 564.622 313.624C568.815 316.484 573.317 319.223 578.127 321.726C566.859 297.922 563.387 283.002 567.508 276.347C569.249 273.532 572.325 272.208 576.655 272.381C590.721 272.972 607.795 275.824 626.588 280.644C624.535 276.108 622.308 271.939 619.938 268.224C604.927 244.699 602.13 224.707 602.674 211.428C602.103 211.632 601.539 211.692 600.991 211.581C598.012 210.988 596.518 205.834 596.423 195.827C596.271 179.635 599.167 166.996 601.083 158.633C602.293 153.358 603.248 149.193 602.245 148.512C600.529 147.346 591.08 154.019 579.122 162.463C560.454 175.651 542.075 181.336 522.94 179.841C507.138 178.609 493.331 172.603 481.76 166.592C466.309 190.939 462.201 215.974 469.552 241.224C470.223 243.528 470.383 244.076 469.764 244.415C469.158 244.749 468.629 244.134 468.015 243.423C461.68 236.077 451.073 223.788 459.37 195.211C462.488 184.465 466.591 175.913 469.886 169.042C471.198 166.31 472.363 163.88 473.281 161.716C466.447 157.177 462.495 152.599 462.423 148.934C462.396 147.54 462.994 146.414 464.102 145.768C466.087 144.614 469.283 145.15 472.658 147.2C477.724 150.276 477.382 154.85 474.855 161.209C476.462 162.241 478.268 163.297 480.288 164.37C480.637 164.553 480.986 164.739 481.336 164.92C484.307 160.311 487.669 155.748 491.421 151.229C491.438 151.211 491.453 151.194 491.471 151.176C491.603 151.051 491.742 150.915 491.89 150.772C488.669 148.379 485.93 145.092 484.509 141.594L483.935 140.186C481.59 134.454 479.739 129.925 481.333 126.784C481.575 126.309 481.892 125.874 482.284 125.48C481.226 123.582 480.73 120.921 480.752 117.362C477.684 117.541 475.065 116.97 473.433 115.07C470.348 111.472 471.605 103.854 477.282 91.8139C477.093 91.5149 476.906 91.2208 476.719 90.9318C474.017 86.6796 471.839 83.2694 467.629 83.865C473.778 94.8598 471.884 100.479 470.994 102.15C470.011 103.99 468.347 105.018 466.546 104.897C464.391 104.751 462.51 103.073 461.515 100.401C459.018 93.7239 458.537 89.5396 459.949 86.8254C461.079 84.6566 463.376 83.6463 465.638 83.0055C464.416 80.9548 462.939 78.7658 461.178 76.4412C456.269 69.9524 454.72 64.1948 456.579 59.3345C459.425 51.8881 470.108 46.5201 489.241 42.9263C503.646 40.2197 510.336 43.3661 515.22 45.6631C517.435 46.7035 519.194 47.5304 521.124 47.5505C520.047 44.7282 519.922 42.6172 520.782 41.2928C521.486 40.2097 522.83 39.7799 524.382 40.1368C526.133 40.5414 528.124 41.9889 528.363 43.8688C528.468 44.6956 528.281 46.2763 525.839 47.5605C524.813 48.1008 523.871 48.4476 522.98 48.6386C524.135 51.1417 526.125 54.5168 529.461 59.0454C530.783 60.8373 532.027 62.5588 533.202 64.2124C535.075 55.2331 532.92 46.216 529.683 40.9963C528.056 38.3701 524.06 36.4325 518.126 35.3895C500.835 32.3486 472.979 37.3774 462.932 45.3515C459.727 47.8948 457.684 47.3092 456.751 46.7337C454.738 45.4897 454.039 42.2026 454.882 37.9403C457.067 26.8952 470.445 6.6596 506.711 0.892008C524.422 -1.92519 538.767 1.93495 549.344 12.3669C566.977 29.7627 569.172 61.3248 567.471 73.8854C564.949 92.5201 560.139 107.84 552.931 120.036C553.24 119.931 553.552 119.825 553.866 119.722C555.365 119.224 556.792 118.78 558.141 118.388C558.668 113.555 562.157 106.885 570.89 99.2603C584.53 87.3532 599.801 84.262 608.883 86.4836C609.833 86.7148 610.716 87.0063 611.524 87.3506C614.134 86.7827 616.578 86.7349 618.673 87.3858C622.67 88.6323 624.922 92.1959 625.371 97.9786C627.075 119.961 626.356 131.594 622.642 137.854C641.682 146.69 655.661 159.829 660.245 173.309C664.286 185.176 667.524 199.559 668.462 209.458C675.027 221.749 682.264 244.003 685.162 276.259C688.622 275.804 692.723 275.749 697.594 276.244C739.995 280.544 766.58 287.412 790.035 293.474C801.292 296.386 811.931 299.136 822.807 301.126C855.149 307.05 880.336 307.12 880.59 307.12H894V308.407H880.59C880.336 308.407 855.04 308.339 822.575 302.393C811.662 300.392 800.998 297.638 789.716 294.723C766.306 288.671 739.773 281.813 697.467 277.523C692.665 277.035 688.649 277.093 685.277 277.541C685.322 278.018 685.359 278.496 685.397 278.976C686.407 291.448 685.891 300.837 683.955 306.534C686.848 311.382 688.023 317.029 687.307 323.229C685.858 335.837 676.739 347.747 667.799 348.722C660.041 349.566 652.849 348.476 642.685 345.606C644.171 372.094 640.123 393.473 631.916 401.889C626.813 407.124 620.165 407.433 612.694 402.779C609.936 401.063 607.526 399.374 605.421 397.723C606.017 409.7 604.622 418.835 602.752 422.977C602.53 423.469 602.303 423.987 602.063 424.53C597.788 434.243 589.833 452.325 554.587 457.66C550.037 458.349 545.288 458.693 540.461 458.693C521.172 458.693 500.58 453.205 485.935 442.273C484.86 447.238 482.935 450.423 480.246 451.606C472.655 454.954 448.709 446.756 436.067 436.485C429.806 431.396 426.965 426.377 427.848 421.969C428.841 416.998 434.438 413 444.481 410.082C452.311 407.81 458.706 406.951 464.039 407.152C462.44 401.042 461.67 395.323 461.667 390.515C444.239 399.143 431.911 409.858 424.932 415.923C423.046 417.561 421.559 418.855 420.357 419.79C418.928 420.904 416.985 422.984 414.528 425.618C408.474 432.102 399.571 441.642 388.673 446.771C393.061 449.651 394.986 452.657 394.4 455.71C393.183 462.038 381.058 468.241 357.326 474.672C346.53 477.597 334.447 480.263 322.848 482.613C322.982 482.879 323.117 483.136 323.254 483.39C326.971 490.301 333.491 496.973 340.825 502.105C352.272 501.786 366.937 501.034 381.559 499.338C382.365 497.672 383.173 495.867 384.031 493.945C388.893 483.081 395.548 468.203 413.181 453.949C425.436 444.042 438.472 446.608 444.513 454.049C450.3 461.181 450.348 473.244 437.404 484.111C426.665 493.125 404.572 498.011 382.342 500.64C378.713 507.953 374.804 512.821 366.338 512.994C366.186 512.999 366.034 512.999 365.879 512.999Z" fill="#231F20"/>
</g>
</g>
</g>
<defs>
<clipPath id="clip0">
<rect width="894" height="513" fill="white"/>
</clipPath>
</defs>
</svg>
